<svg width="28" height="28" viewBox="0 0 28 28" fill="none" xmlns="http://www.w3.org/2000/svg">
<g id="account_circle">
<mask id="mask0_641_1299" style="mask-type:alpha" maskUnits="userSpaceOnUse" x="0" y="0" width="28" height="28">
<rect id="Bounding box" width="28" height="28" fill="#D9D9D9"/>
</mask>
<g mask="url(#mask0_641_1299)">
<path id="account_circle_2" d="M6.82516 19.95C7.81683 19.1916 8.92516 18.5937 10.1502 18.1562C11.3752 17.7187 12.6585 17.5 14.0002 17.5C15.3418 17.5 16.6252 17.7187 17.8502 18.1562C19.0752 18.5937 20.1835 19.1916 21.1752 19.95C21.8557 19.1528 22.3856 18.2486 22.7647 17.2375C23.1439 16.2264 23.3335 15.1472 23.3335 14C23.3335 11.4139 22.4245 9.21179 20.6064 7.39373C18.7884 5.57567 16.5863 4.66665 14.0002 4.66665C11.4141 4.66665 9.21197 5.57567 7.39391 7.39373C5.57586 9.21179 4.66683 11.4139 4.66683 14C4.66683 15.1472 4.85641 16.2264 5.23558 17.2375C5.61475 18.2486 6.14461 19.1528 6.82516 19.95ZM14.0002 15.1666C12.8529 15.1666 11.8856 14.7729 11.0981 13.9854C10.3106 13.1979 9.91683 12.2305 9.91683 11.0833C9.91683 9.93609 10.3106 8.96873 11.0981 8.18123C11.8856 7.39373 12.8529 6.99998 14.0002 6.99998C15.1474 6.99998 16.1147 7.39373 16.9022 8.18123C17.6897 8.96873 18.0835 9.93609 18.0835 11.0833C18.0835 12.2305 17.6897 13.1979 16.9022 13.9854C16.1147 14.7729 15.1474 15.1666 14.0002 15.1666ZM14.0002 25.6666C12.3863 25.6666 10.8696 25.3604 9.45016 24.7479C8.03072 24.1354 6.796 23.3041 5.746 22.2541C4.696 21.2041 3.86475 19.9694 3.25225 18.55C2.63975 17.1305 2.3335 15.6139 2.3335 14C2.3335 12.3861 2.63975 10.8694 3.25225 9.44998C3.86475 8.03054 4.696 6.79581 5.746 5.74581C6.796 4.69581 8.03072 3.86456 9.45016 3.25206C10.8696 2.63956 12.3863 2.33331 14.0002 2.33331C15.6141 2.33331 17.1307 2.63956 18.5502 3.25206C19.9696 3.86456 21.2043 4.69581 22.2543 5.74581C23.3043 6.79581 24.1356 8.03054 24.7481 9.44998C25.3606 10.8694 25.6668 12.3861 25.6668 14C25.6668 15.6139 25.3606 17.1305 24.7481 18.55C24.1356 19.9694 23.3043 21.2041 22.2543 22.2541C21.2043 23.3041 19.9696 24.1354 18.5502 24.7479C17.1307 25.3604 15.6141 25.6666 14.0002 25.6666ZM14.0002 23.3333C15.0307 23.3333 16.0029 23.1826 16.9168 22.8812C17.8307 22.5798 18.6668 22.1472 19.4252 21.5833C18.6668 21.0194 17.8307 20.5868 16.9168 20.2854C16.0029 19.984 15.0307 19.8333 14.0002 19.8333C12.9696 19.8333 11.9974 19.984 11.0835 20.2854C10.1696 20.5868 9.3335 21.0194 8.57516 21.5833C9.3335 22.1472 10.1696 22.5798 11.0835 22.8812C11.9974 23.1826 12.9696 23.3333 14.0002 23.3333ZM14.0002 12.8333C14.5057 12.8333 14.9238 12.668 15.2543 12.3375C15.5849 12.0069 15.7502 11.5889 15.7502 11.0833C15.7502 10.5778 15.5849 10.1597 15.2543 9.82915C14.9238 9.49859 14.5057 9.33331 14.0002 9.33331C13.4946 9.33331 13.0766 9.49859 12.746 9.82915C12.4154 10.1597 12.2502 10.5778 12.2502 11.0833C12.2502 11.5889 12.4154 12.0069 12.746 12.3375C13.0766 12.668 13.4946 12.8333 14.0002 12.8333Z" fill="#D9D9D9"/>
</g>
</g>
</svg>
