<svg width="28" height="28" viewBox="0 0 28 28" fill="none" xmlns="http://www.w3.org/2000/svg">
<g id="breaking_news">
<mask id="mask0_641_1308" style="mask-type:alpha" maskUnits="userSpaceOnUse" x="0" y="0" width="28" height="28">
<rect id="Bounding box" width="28" height="28" fill="#D9D9D9"/>
</mask>
<g mask="url(#mask0_641_1308)">
<path id="breaking_news_2" d="M8.16683 19.8333C8.49739 19.8333 8.77447 19.7215 8.99808 19.4979C9.22169 19.2743 9.3335 18.9972 9.3335 18.6667C9.3335 18.3361 9.22169 18.059 8.99808 17.8354C8.77447 17.6118 8.49739 17.5 8.16683 17.5C7.83627 17.5 7.55919 17.6118 7.33558 17.8354C7.11197 18.059 7.00016 18.3361 7.00016 18.6667C7.00016 18.9972 7.11197 19.2743 7.33558 19.4979C7.55919 19.7215 7.83627 19.8333 8.16683 19.8333ZM7.00016 15.1667H9.3335V8.16667H7.00016V15.1667ZM12.8335 19.8333H21.0002V17.5H12.8335V19.8333ZM12.8335 15.1667H21.0002V12.8333H12.8335V15.1667ZM12.8335 10.5H21.0002V8.16667H12.8335V10.5ZM4.66683 24.5C4.02516 24.5 3.47586 24.2715 3.01891 23.8146C2.56197 23.3576 2.3335 22.8083 2.3335 22.1667V5.83333C2.3335 5.19167 2.56197 4.64236 3.01891 4.18542C3.47586 3.72847 4.02516 3.5 4.66683 3.5H23.3335C23.9752 3.5 24.5245 3.72847 24.9814 4.18542C25.4384 4.64236 25.6668 5.19167 25.6668 5.83333V22.1667C25.6668 22.8083 25.4384 23.3576 24.9814 23.8146C24.5245 24.2715 23.9752 24.5 23.3335 24.5H4.66683ZM4.66683 22.1667H23.3335V5.83333H4.66683V22.1667Z" fill="#D9D9D9"/>
</g>
</g>
</svg>
