<svg width="28" height="28" viewBox="0 0 28 28" fill="none" xmlns="http://www.w3.org/2000/svg">
<g id="switch_account">
<mask id="mask0_641_1302" style="mask-type:alpha" maskUnits="userSpaceOnUse" x="0" y="0" width="28" height="28">
<rect id="Bounding box" width="28" height="28" fill="white"/>
</mask>
<g mask="url(#mask0_641_1302)">
<path id="switch_account_2" d="M16.3335 12.8333C17.3057 12.8333 18.1321 12.493 18.8127 11.8125C19.4932 11.1319 19.8335 10.3055 19.8335 9.33331C19.8335 8.36109 19.4932 7.5347 18.8127 6.85415C18.1321 6.17359 17.3057 5.83331 16.3335 5.83331C15.3613 5.83331 14.5349 6.17359 13.8543 6.85415C13.1738 7.5347 12.8335 8.36109 12.8335 9.33331C12.8335 10.3055 13.1738 11.1319 13.8543 11.8125C14.5349 12.493 15.3613 12.8333 16.3335 12.8333ZM9.3335 18.375C10.2085 17.3444 11.2585 16.5521 12.4835 15.9979C13.7085 15.4437 14.9918 15.1666 16.3335 15.1666C17.6752 15.1666 18.9585 15.4437 20.1835 15.9979C21.4085 16.5521 22.4585 17.3444 23.3335 18.375V4.66665H9.3335V18.375ZM9.3335 21C8.69183 21 8.14252 20.7715 7.68558 20.3146C7.22864 19.8576 7.00016 19.3083 7.00016 18.6666V4.66665C7.00016 4.02498 7.22864 3.47567 7.68558 3.01873C8.14252 2.56179 8.69183 2.33331 9.3335 2.33331H23.3335C23.9752 2.33331 24.5245 2.56179 24.9814 3.01873C25.4384 3.47567 25.6668 4.02498 25.6668 4.66665V18.6666C25.6668 19.3083 25.4384 19.8576 24.9814 20.3146C24.5245 20.7715 23.9752 21 23.3335 21H9.3335ZM4.66683 25.6666C4.02516 25.6666 3.47586 25.4382 3.01891 24.9812C2.56197 24.5243 2.3335 23.975 2.3335 23.3333V6.99998H4.66683V23.3333H21.0002V25.6666H4.66683ZM16.3335 10.5C16.0029 10.5 15.7259 10.3882 15.5022 10.1646C15.2786 9.94095 15.1668 9.66387 15.1668 9.33331C15.1668 9.00276 15.2786 8.72567 15.5022 8.50206C15.7259 8.27845 16.0029 8.16665 16.3335 8.16665C16.6641 8.16665 16.9411 8.27845 17.1647 8.50206C17.3884 8.72567 17.5002 9.00276 17.5002 9.33331C17.5002 9.66387 17.3884 9.94095 17.1647 10.1646C16.9411 10.3882 16.6641 10.5 16.3335 10.5ZM12.4835 18.6666H20.1835C19.6196 18.2778 19.0071 17.9861 18.346 17.7916C17.6849 17.5972 17.0141 17.5 16.3335 17.5C15.6529 17.5 14.9821 17.5972 14.321 17.7916C13.6599 17.9861 13.0474 18.2778 12.4835 18.6666Z" fill="white"/>
</g>
</g>
</svg>
